<?xml version="1.0" standalone="no"?>
<!DOCTYPE svg PUBLIC "-//W3C//DTD SVG 1.1//EN" "http://www.w3.org/Graphics/SVG/1.1/DTD/svg11.dtd" >
<svg xmlns="http://www.w3.org/2000/svg">
<metadata></metadata>
<defs>
<font id="ruswolfensteinregular" horiz-adv-x="655" >
<font-face units-per-em="2048" ascent="1638" descent="-410" />
<missing-glyph horiz-adv-x="409" />
<glyph horiz-adv-x="0" />
<glyph horiz-adv-x="682" />
<glyph unicode=" "  horiz-adv-x="409" />
<glyph unicode="&#x09;" horiz-adv-x="409" />
<glyph unicode="&#xa0;" horiz-adv-x="409" />
<glyph unicode="!" horiz-adv-x="327" d="M41 0v225h246v-225h-246zM41 287v1085h246v-1085h-246z" />
<glyph unicode="&#x22;" d="M41 1249v307h246v-307h-246zM369 1249v307h245v-307h-245z" />
<glyph unicode="#" horiz-adv-x="983" d="M41 307v185h143v184h-143v184h143v205h205v-205h205v205h205v-205h143v-184h-143v-184h143v-185h-143v-205h-205v205h-205v-205h-205v205h-143zM389 492h205v184h-205v-184z" />
<glyph unicode="$" horiz-adv-x="3768" d="M41 1741h1249l-164 -164h287v451q328 -41 389 -144q-123 0 -123 -123v-368h-1269l-164 143h635l61 61h-758zM471 1331h1208v-778l82 82v696h246v-778l102 82v696h1209l-144 -143h-819v-799l-246 -246v349l-102 -82v-164l-246 -246v471l-327 -328v1045h-820zM1987 1884 q102 103 368 144v-451h266l-143 164h1270l-144 -144h-778l62 -61h655l-164 -143h-1270v389q0 82 -122 102z" />
<glyph unicode="%" horiz-adv-x="3522" d="M20 1454h861l-144 -143h410v389l389 -103l-123 -61v-348h-1044l225 184zM594 1106h819v-717l205 123v594h266v-696l164 102v594h819l-532 -102v-717l-287 -164v266l-164 -102v-103l-266 -184v389l-471 -266v881zM1618 1188v840l389 -123l-123 -62v-655h-266zM1946 1597 l389 103v-389h409l-164 143h902l-594 -82l225 -184h-1065v348z" />
<glyph unicode="&#x26;" d="M41 0v512l102 102l-102 103v471h573v-471l-327 -328v-205h82v185l245 225v-594h-573zM287 799l41 -41l41 41v164h-82v-164z" />
<glyph unicode="'" horiz-adv-x="327" d="M41 1249v307h246v-307h-246z" />
<glyph unicode="(" horiz-adv-x="450" d="M41 -74v1313l149 133h220v-225h-123v-1147h123v-205h-211z" />
<glyph unicode=")" horiz-adv-x="450" d="M41 0h123v1147h-123v225h219l150 -133v-1313l-158 -131h-211v205z" />
<glyph unicode="*" horiz-adv-x="6103" d="M20 1454h984v-1024l40 21v1003h246v-20v-1004l41 21v1003h21h225v-20v-1065l-533 -328v184l-286 -184v20v1147zM1618 389v21v1024v20h553v-20v-1024v-21h-553zM1864 573h61v717h-61v-717zM2212 41v1536l246 164v-1536zM2499 225v1536l409 267l164 -164l-205 -205 l-123 123v-328h226l-226 -143v-922zM2785 389v21v880l267 164h286v-20v-635l-246 -144v594l-40 -20v-656h266h20v-163v-21h-553zM3379 389v21v1044h21h532v-1044v-21h-266v21v880h-41v-880v-21h-246zM3973 389v21v163h21h122v390l-143 102v389h21h348v-20v-144h-103v-164 l103 -82v-634v-21h-369zM4383 225v1352l266 164v-287h246l-246 -164v-901zM4690 389v881l266 184h246v-20v-656l-225 -143v614l-41 -20v-656h266v-163v-21h-512zM5243 389v21v696l246 143v-839v-21h-246zM5243 1167v287l246 164v-307zM5530 389v21v1024v20h532v-20v-1024 v-21h-246v21v880h-61v-880v-21h-225z" />
<glyph unicode="+" d="M41 410v225h164v143h246v-143h163v-225h-163v-164h-246v164h-164z" />
<glyph unicode="," horiz-adv-x="327" d="M41 -205v430h246v-286z" />
<glyph unicode="-" horiz-adv-x="552" d="M41 410v225h471v-225h-471z" />
<glyph unicode="." horiz-adv-x="327" d="M41 0v225h246v-225h-246z" />
<glyph unicode="/" horiz-adv-x="471" d="M41 -61l143 1495h246l-143 -1495h-246z" />
<glyph unicode="0" d="M41 0v1188h573v-1188h-573zM287 225h82v738h-82v-738z" />
<glyph unicode="1" horiz-adv-x="450" d="M41 963v225h369v-1249l-267 -144v1168h-102z" />
<glyph unicode="2" horiz-adv-x="450" d="M41 0v594l102 102v267h-102v225h369v-594l-123 -123v-246h123v-225h-369z" />
<glyph unicode="3" horiz-adv-x="450" d="M41 0v225h102v226h-102v184l102 102v226h-102v225h369v-492l-103 -102h103v-594h-369z" />
<glyph unicode="4" d="M41 0v1290l246 144v-1209h82v963h245v-1249l-245 -144v205h-328z" />
<glyph unicode="5" horiz-adv-x="450" d="M41 0v225h102v246l-102 82v635h369v-225h-123v-308l123 -82v-573h-369z" />
<glyph unicode="6" d="M41 0v1188h573v-225h-327v-738h82v594l245 -164v-655h-573z" />
<glyph unicode="7" horiz-adv-x="450" d="M41 -205v533l102 327v308h-102v225h369v-553l-123 -369v-327z" />
<glyph unicode="8" d="M41 0v512l82 82l-82 82v512h573v-512l-82 -82l82 -82v-512h-573zM287 225h82v185l-41 41l-41 -41v-185zM287 737l41 -41l41 41v226h-82v-226z" />
<glyph unicode="9" d="M41 0v225h328v738h-82v-594l-246 143v676h573v-1188h-573z" />
<glyph unicode=":" horiz-adv-x="327" d="M41 0v225h246v-225h-246zM41 410v225h246v-225h-246z" />
<glyph unicode=";" horiz-adv-x="327" d="M41 -205v430h246v-286zM41 410v225h246v-225h-246z" />
<glyph unicode="&#x3c;" horiz-adv-x="1269" d="M41 1188h1270v-225z" />
<glyph unicode="=" d="M41 287v184h573v-184h-573zM41 553v184h573v-184h-573z" />
<glyph unicode="&#x3e;" horiz-adv-x="1269" d="M-41 963v225h1270z" />
<glyph unicode="?" horiz-adv-x="450" d="M41 0v225h246v-225h-246zM41 287v450l102 144v266h-102v225h369v-532l-123 -185v-368h-246z" />
<glyph unicode="@" horiz-adv-x="983" d="M41 0v1188h901v-1188h-573v737l245 144v-656h82v738h-409v-820z" />
<glyph unicode="A" d="M41 -307v1495h573v-1188l-245 -123v574h-82v-615zM287 655h82v308h-82v-308z" />
<glyph unicode="B" d="M41 0v1188h573v-512l-143 -82l143 -82v-512h-573zM287 225h82v226l-82 41v-267zM287 696l82 41v226h-82v-267z" />
<glyph unicode="C" horiz-adv-x="450" d="M41 0v1188h369v-225h-123v-738h123v-225h-369z" />
<glyph unicode="D" d="M41 -307v1495h573v-1188zM287 102l82 41v820h-82v-861z" />
<glyph unicode="E" horiz-adv-x="450" d="M41 0v1188h369v-225h-123v-267h123v-225h-123v-246h123v-225h-369z" />
<glyph unicode="F" horiz-adv-x="450" d="M41 -205v1393h369v-225h-123v-267h123v-225h-123v-532z" />
<glyph unicode="G" d="M41 0v1188h573v-225h-327v-738h82v512l245 144v-881h-573z" />
<glyph unicode="H" d="M41 -307v1495h246v-594l82 41v553h245v-1168v-20l-245 -123v492l-82 -41v-492z" />
<glyph unicode="I" horiz-adv-x="327" d="M41 -205v1393h246v-1249z" />
<glyph unicode="J" horiz-adv-x="327" d="M-307 -492l225 226l123 -164v1618h246v-1618l-410 -246z" />
<glyph unicode="K" d="M41 -307v1495h246v-492l82 41v451h245v-553l-143 -82l143 -82v-471l-245 -123v492l-82 41v-574z" />
<glyph unicode="L" horiz-adv-x="450" d="M41 0v1188h246v-963h123v-225h-369z" />
<glyph unicode="M" horiz-adv-x="983" d="M41 -307v1495h901v-1188l-246 -123v1086h-82v-963l-245 -123v1086h-82v-1127z" />
<glyph unicode="N" d="M41 -307v1495h573v-1188l-245 -123v1086h-82v-1127z" />
<glyph unicode="O" d="M41 0v1188h573v-1188h-573zM287 225h82v738h-82v-738z" />
<glyph unicode="P" d="M41 -348v1536h573v-1188h-327v-205zM287 225h82v738h-82v-738z" />
<glyph unicode="Q" d="M41 0v1188h573v-1249l-245 -144v205h-328zM287 225h82v738h-82v-738z" />
<glyph unicode="R" d="M41 -307v1495h573v-553l-143 -82l143 -82v-471l-245 -123v492l-82 41v-574zM287 696l82 41v226h-82v-267z" />
<glyph unicode="S" horiz-adv-x="450" d="M41 0v225h102v246l-102 82v635h369v-225h-123v-308l123 -82v-573h-369z" />
<glyph unicode="T" horiz-adv-x="552" d="M41 963v225h471v-225h-102v-1024l-267 -144v1168h-102z" />
<glyph unicode="U" d="M41 0v1188h246v-963h82v963h245v-1188h-573z" />
<glyph unicode="V" d="M41 -307v1495h246v-1106l82 41v1065h245v-1188z" />
<glyph unicode="W" horiz-adv-x="983" d="M41 -307v1495h246v-1106l82 41v1065h245v-1127l82 41v1086h246v-1188l-573 -307v184z" />
<glyph unicode="X" d="M41 -307v778l82 82l-82 82v553h246v-492l41 -41l41 41v492h245v-553l-82 -82l82 -82v-471l-245 -123v533l-41 41l-41 -41v-574z" />
<glyph unicode="Y" d="M0 -266l225 205l144 -144v205h-328v1188h246v-963h82v963h245v-1393l-430 -246z" />
<glyph unicode="Z" horiz-adv-x="450" d="M41 0v594l102 61v308h-102v225h369v-594l-123 -82v-287h123v-225h-369z" />
<glyph unicode="[" horiz-adv-x="450" d="M41 -205v1577h369v-225h-123v-1147h123v-205h-369z" />
<glyph unicode="\" horiz-adv-x="471" d="M41 1434h246l143 -1495h-246z" />
<glyph unicode="]" horiz-adv-x="450" d="M41 0h102v1147h-102v225h369v-1577h-369v205z" />
<glyph unicode="_" horiz-adv-x="4710" d="M20 594h615l-82 -62h-102v-348l-205 -164h-21v512h-123zM287 1843h389v-450h61v307l144 143v-450h61v450h21h389l-103 -82h-143v-430l-143 -143h-21v143h-61l-144 -143v143h-61q-143 -143 -144 -143v573h-143zM635 184v389v21h471l-82 -82h-205v-102h266l-61 -62h-205 v-102h266l-61 -62h-389zM963 655v389h471l-82 -81h-185v-82h246l-61 -62h-185v-102h246l-61 -62h-389zM1126 184v21v389h21h491v-21v-122l-82 -82l82 -82v-82l-204 -185v308h-103v-123v-21h-205zM1147 1331v287l184 164h164v-307l-164 -144h-184zM1290 1413l62 62v204 l-62 -61v-205zM1331 389h103v123h-103v-123zM1454 655v389h21h204l103 -102v102h184h21v-368l-82 -82h327v-21v-122l-82 -82l82 -82v-82l-225 -185v308h-102v-123v-21h-205v21v368v21h82v246l-103 123v-308h-204h-21zM1536 1188v696l143 144v-697zM1720 1679v103h41v102 l123 144h184l-102 -103h-61v-143h163l-102 -103h-61v-348l-144 -143v491h-41zM1905 389h102v123h-102v-123zM1946 1331v266l184 185h143v-123l-184 -164v-82h184v-20v-62h-327zM2068 655v389h492l-82 -81h-205v-82h267l-62 -62h-205v-102h267l-62 -62h-410zM2089 1597l82 82 h-82v-82zM2314 20v553v21h185v-21v-368zM2314 1188v512l82 82h266v-451h-143v41v307h-61v-348zM2499 594h553l-82 -62h-103v-348l-184 -164v512h-103zM2580 655v389h21h184l144 -143l143 143h205v-368l-205 -205v471l-143 -123l-144 144v-308h-184h-21zM2683 1331l61 82h185 l-226 205v82l82 82h267l-103 -103h-102l245 -225v-61l-61 -62h-348zM3011 1679l122 103h21v123l123 123h20v-246h164l-102 -103h-62v-327l-143 -144v471h-143zM3072 184v21v246l143 143h246v143l-143 144v163h205v-204h102v204h184h21v-163q-143 -123 -144 -123v-82 l-102 -123v-246l-143 -123h-369zM3277 246h82v266h-82v-266zM3338 1331v266l185 185h122h21v-123l-184 -164v-82h184v-82h-328zM3482 1597l82 82h-82v-82zM3604 184v389l21 21h491v-21v-122l-81 -82l81 -82v-82l-184 -185v308h-102v-144h-21h-184h-21zM3727 1331v369 l123 123v-123v-369h-123zM3727 1782v123l123 123v-123zM3830 389h102v123h-102v-123zM3912 1188v409v123l61 62h287v-226v-225h-21h-123h-20v348h-41v-348zM4157 430v143v21h205v-21v-184h103v184v21h204v-21v-163l-143 -123v-82l-225 -185v267z" />
<glyph unicode="a" d="M41 0v737l246 144v-656h82v738h-328v225h573v-1188h-573z" />
<glyph unicode="b" d="M41 0v1331l246 144v-287h327v-1188h-573zM287 225h82v738h-82v-738z" />
<glyph unicode="c" horiz-adv-x="450" d="M41 0v1188h369v-225h-123v-738h123v-225h-369z" />
<glyph unicode="d" d="M41 0v1188h328v287l245 143v-1618h-573zM287 225h82v738h-82v-738z" />
<glyph unicode="e" d="M41 0v1188h573v-737l-245 -164v676h-82v-738h327v-225h-573z" />
<glyph unicode="f" horiz-adv-x="327" d="M41 -205v2048l430 266l184 -184l-204 -225l-164 102v-286h266l-266 -144v-1433z" />
<glyph unicode="g" d="M0 -266l225 205l144 -144v205h-328v1188h573v-1393l-430 -246zM287 225h82v738h-82v-738z" />
<glyph unicode="h" d="M41 0v1331l246 144v-287h327v-1188h-245v963h-82v-963h-246z" />
<glyph unicode="i" horiz-adv-x="327" d="M41 0v778l246 144v-922h-246zM41 840v307l246 143v-286z" />
<glyph unicode="j" horiz-adv-x="327" d="M-307 -492l225 226l123 -164v1208l246 144v-1352l-410 -246zM41 840v307l246 143v-286z" />
<glyph unicode="k" d="M41 0v1331l246 144v-738l82 62v389h245v-451l-102 -82l102 -82v-634l-245 -144v717l-82 61v-573h-246z" />
<glyph unicode="l" horiz-adv-x="327" d="M41 -307v1638l246 144v-1639z" />
<glyph unicode="m" horiz-adv-x="983" d="M41 0v1188h901v-1188h-246v963h-82v-963h-245v963h-82v-963h-246z" />
<glyph unicode="n" d="M41 0v1188h573v-1188h-245v963h-82v-963h-246z" />
<glyph unicode="o" d="M41 0v1188h573v-1188h-573zM287 225h82v738h-82v-738z" />
<glyph unicode="p" d="M41 -430v1618h573v-1188h-327v-266zM287 225h82v738h-82v-738z" />
<glyph unicode="q" d="M41 0v1188h573v-1249l-245 -144v205h-328zM287 225h82v738h-82v-738z" />
<glyph unicode="r" horiz-adv-x="450" d="M41 -205v1393h369v-225h-123v-1024z" />
<glyph unicode="s" horiz-adv-x="450" d="M41 0v225h102v410l-102 102v451h369v-225h-123v-144l123 -123v-696h-369z" />
<glyph unicode="t" horiz-adv-x="327" d="M41 -205v1782l246 164v-225h266l-266 -144v-1433z" />
<glyph unicode="u" d="M41 0v1188h246v-963h82v963h245v-1188h-573z" />
<glyph unicode="v" d="M41 -205v1393h246v-1004l82 41v963h245v-1086z" />
<glyph unicode="w" horiz-adv-x="983" d="M41 -205v1393h246v-1045l82 41v1004h245v-1004l82 41v963h246v-1086l-573 -307v185z" />
<glyph unicode="x" d="M41 0v594l82 61l-82 62v471h246v-369l41 -41l41 41v369h245v-471l-82 -62l82 -61v-594h-245v471l-41 41l-41 -41v-471h-246z" />
<glyph unicode="y" d="M0 -266l225 205l144 -144v205h-328v1188h246v-963h82v963h245v-1393l-430 -246z" />
<glyph unicode="z" horiz-adv-x="450" d="M41 0v696l102 103v164h-102v225h369v-451l-123 -123v-389h123v-225h-369z" />
<glyph unicode="|" horiz-adv-x="327" d="M41 -61v1495h246v-1495h-246z" />
<glyph unicode="&#xa7;" horiz-adv-x="6184" d="M20 1065h615v-717h82v512l246 205v-717h81v717h635l-163 -143h-226v-635v-21l-246 -205v205h-81l-246 -205v205h-82l-225 -205v861h-226zM512 1700v20v267h20h328v-103l-61 -41l61 -41v-61l-143 -123v205h-62v-103v-20h-143zM655 1864h62v82h-62v-82zM901 1700v20v267 h287h20v-41v-21h-164v-41h164v-20v-41h-20h-144v-62h144h20v-41v-20h-307zM1249 1925v21v41h21h327v-41v-21h-102v-205l-143 -102v307h-103zM1352 266v451l286 225h246v-471l-246 -205h-286zM1577 369l82 61v410l-82 -62v-409zM1638 1700v20v267h21h102h21v-226h61v226h123 h21v-267v-20h-349zM1946 41v1085l225 226v-1086zM2028 1700v20v267h20h328v-103l-62 -41l62 -41v-61l-144 -123v205h-61v-103v-20h-143zM2171 1864h61v82h-61v-82zM2212 799v20v123v21h82v163l225 226h266l-143 -144h-123v-245h266l-143 -164h-123v-533l-225 -205v738h-82z M2417 1700v20v267h143q61 -61 61 -62h21v62h143v-246l-143 -123v225l-82 82v-205v-20h-143zM2580 266v389l287 308h225v-21v-164l-286 -286v-103v-20h286v-103h-389h-123zM2806 696l102 103h-102v-103zM2949 1925v62h21h307v-41v-21h-103v-205l-122 -102v307h-82h-21z M3154 61v410v369l123 123h409v-21v-676h-20h-184h-21v533h-82v-533zM3318 1700v20v267h20h328v-267v-20h-348zM3461 1761h62v164h-62v-164zM3748 266v41v62h368l-368 327v123l143 144h430l-164 -164h-163l368 -348v-62l-123 -123h-491zM3871 1700v20v267h286h21v-41v-21 h-184v-164h163h21v-41v-20h-307zM4219 799l164 164h61v184q20 21 225 205v-389h267l-164 -164h-103v-512l-225 -226v185v553h-225zM4219 1700v20v267h20h308v-246l-144 -123v205h-41v-103v-20h-143zM4362 1864h41v82h-41v-82zM4588 1700v20v41h204v62h-204v20v144h327h21 v-41v-21h-205v-61h184h21v-144v-20h-348zM4731 266v410l287 287h225v-21v-164l-287 -266v-143h287v-103h-389h-123zM4956 696l103 103h-103v-103zM4977 1925v62h20h307v-41v-21h-82v-205l-143 -102v307h-82h-20zM5325 266v348v226l205 184v-758h-21h-184zM5325 942v205 l205 205v-205zM5345 1700v20v267h123h21v-226h123h40v-41v-20h-307zM5612 61v779l122 123h430v-21v-676h-20h-205h-20v287v246h-82v-533zM5693 1700v20v267h287h21v-41v-21h-164v-41h164v-20v-41h-21h-143v-62h143h21v-41v-20h-308z" />
<glyph unicode="&#xad;" horiz-adv-x="552" d="M41 410v225h471v-225h-471z" />
<glyph unicode="&#xb1;" d="M41 655v226h164v143h246v-143h163v-226h-163v-163h-246v163h-164zM98 246v225h471v-225h-471z" />
<glyph unicode="&#xc4;" d="M41 -307v1495h573v-1188l-245 -123v574h-82v-615zM41 1249v144l246 163v-307h-246zM287 655h82v308h-82v-308zM369 1249v144l245 163v-307h-245z" />
<glyph unicode="&#xd6;" d="M41 0v1188h246v-963h82v963h245v-1188h-573zM41 1249v144l246 163v-307h-246zM369 1249v144l245 163v-307h-245z" />
<glyph unicode="&#xdc;" d="M41 0v1188h573v-1188h-573zM41 1249v144l246 163v-307h-246zM287 225h82v738h-82v-738zM369 1249v144l245 163v-307h-245z" />
<glyph unicode="&#xdf;" d="M-307 -492l225 226l123 -164v1618h573v-533l-102 -82l102 -81v-492l-245 -123v1086h-82v-1393l-410 -246z" />
<glyph unicode="&#xe4;" d="M41 0v512l246 143v-430h82v512h-328v226h573v-963h-573zM41 1024v164l246 143v-307h-246zM369 1024v164l245 143v-307h-245z" />
<glyph unicode="&#xf6;" d="M41 0v963h246v-738h82v738h245v-963h-573zM41 1024v164l246 143v-307h-246zM369 1024v164l245 143v-307h-245z" />
<glyph unicode="&#xf7;" d="M98 410v225h471v-225h-471zM205 133v225h246v-225h-246zM205 686v225h246v-225h-246z" />
<glyph unicode="&#xfc;" d="M41 0v963h573v-963h-573zM41 1024v164l246 143v-307h-246zM287 225h82v512h-82v-512zM369 1024v164l245 143v-307h-245z" />
<glyph unicode="&#x2000;" horiz-adv-x="1054" />
<glyph unicode="&#x2001;" horiz-adv-x="2109" />
<glyph unicode="&#x2002;" horiz-adv-x="1054" />
<glyph unicode="&#x2003;" horiz-adv-x="2109" />
<glyph unicode="&#x2004;" horiz-adv-x="703" />
<glyph unicode="&#x2005;" horiz-adv-x="527" />
<glyph unicode="&#x2006;" horiz-adv-x="351" />
<glyph unicode="&#x2007;" horiz-adv-x="351" />
<glyph unicode="&#x2008;" horiz-adv-x="263" />
<glyph unicode="&#x2009;" horiz-adv-x="421" />
<glyph unicode="&#x200a;" horiz-adv-x="117" />
<glyph unicode="&#x2010;" horiz-adv-x="552" d="M41 410v225h471v-225h-471z" />
<glyph unicode="&#x2011;" horiz-adv-x="552" d="M41 410v225h471v-225h-471z" />
<glyph unicode="&#x2012;" horiz-adv-x="552" d="M41 410v225h471v-225h-471z" />
<glyph unicode="&#x2013;" horiz-adv-x="1105" d="M41 410v225h1024v-225h-1024z" />
<glyph unicode="&#x2014;" horiz-adv-x="2129" d="M41 410v225h2048v-225h-2048z" />
<glyph unicode="&#x2018;" horiz-adv-x="327" d="M41 1249v307h246v-307h-246z" />
<glyph unicode="&#x2019;" horiz-adv-x="327" d="M41 1249v307h246v-307h-246z" />
<glyph unicode="&#x201c;" d="M41 1249v307h246v-307h-246zM369 1249v307h245v-307h-245z" />
<glyph unicode="&#x201d;" d="M41 1249v307h246v-307h-246zM369 1249v307h245v-307h-245z" />
<glyph unicode="&#x201e;" d="M41 0v307h246v-307h-246zM369 0v307h245v-307h-245z" />
<glyph unicode="&#x2026;" horiz-adv-x="888" d="M35 0v225h246v-225h-246zM322 0v225h245v-225h-245zM608 0v225h246v-225h-246z" />
<glyph unicode="&#x202f;" horiz-adv-x="421" />
<glyph unicode="&#x205f;" horiz-adv-x="527" />
<glyph unicode="&#x25fc;" horiz-adv-x="1187" d="M0 0v1188h1188v-1188h-1188z" />
</font>
</defs>
</svg>
